<mxfile host="app.diagrams.net" modified="2024-03-13T11:57:20.830Z" agent="Mozilla/5.0 (Windows NT 10.0; Win64; x64) AppleWebKit/537.36 (KHTML, like Gecko) Chrome/122.0.0.0 Safari/537.36" etag="WU_MNgZrUje6uJwVtIY_" version="24.0.5" type="device">
  <diagram name="Página-1" id="YonQT4FTBOdjr1HWs5Kh">
    <mxGraphModel dx="1434" dy="2032" grid="0" gridSize="10" guides="1" tooltips="1" connect="1" arrows="1" fold="1" page="0" pageScale="1" pageWidth="827" pageHeight="1169" background="none" math="0" shadow="0">
      <root>
        <mxCell id="0" />
        <mxCell id="1" parent="0" />
        <mxCell id="qtVgZNjSLHTabo4_3ABf-8" style="edgeStyle=none;curved=1;rounded=0;orthogonalLoop=1;jettySize=auto;html=1;exitX=1;exitY=0.5;exitDx=0;exitDy=0;fontSize=12;startSize=8;endSize=8;" edge="1" parent="1">
          <mxGeometry relative="1" as="geometry">
            <mxPoint x="568" y="-79" as="sourcePoint" />
            <mxPoint x="568" y="-79" as="targetPoint" />
          </mxGeometry>
        </mxCell>
        <mxCell id="qtVgZNjSLHTabo4_3ABf-91" value="Título" style="swimlane;whiteSpace=wrap;html=1;startSize=64;" vertex="1" parent="1">
          <mxGeometry x="25" y="-1074" width="466" height="449" as="geometry" />
        </mxCell>
        <mxCell id="qtVgZNjSLHTabo4_3ABf-92" value="" style="ellipse;whiteSpace=wrap;html=1;aspect=fixed;" vertex="1" parent="qtVgZNjSLHTabo4_3ABf-91">
          <mxGeometry x="52" width="61" height="61" as="geometry" />
        </mxCell>
        <mxCell id="qtVgZNjSLHTabo4_3ABf-93" value="Home" style="shape=partialRectangle;whiteSpace=wrap;html=1;top=0;left=0;fillColor=none;" vertex="1" parent="qtVgZNjSLHTabo4_3ABf-91">
          <mxGeometry x="4" y="65" width="149" height="60" as="geometry" />
        </mxCell>
        <mxCell id="qtVgZNjSLHTabo4_3ABf-94" value="Serviços" style="shape=partialRectangle;whiteSpace=wrap;html=1;top=0;left=0;fillColor=none;" vertex="1" parent="qtVgZNjSLHTabo4_3ABf-91">
          <mxGeometry x="148" y="65" width="161" height="60" as="geometry" />
        </mxCell>
        <mxCell id="qtVgZNjSLHTabo4_3ABf-95" value="Contatos" style="shape=partialRectangle;whiteSpace=wrap;html=1;top=0;left=0;fillColor=none;" vertex="1" parent="qtVgZNjSLHTabo4_3ABf-91">
          <mxGeometry x="294" y="68" width="172" height="57" as="geometry" />
        </mxCell>
        <mxCell id="qtVgZNjSLHTabo4_3ABf-96" value="Fale cmg" style="whiteSpace=wrap;html=1;shape=mxgraph.basic.roundRectCallout;dx=30;dy=15;size=5;boundedLbl=1;" vertex="1" parent="qtVgZNjSLHTabo4_3ABf-91">
          <mxGeometry x="13" y="305" width="67" height="42" as="geometry" />
        </mxCell>
        <mxCell id="qtVgZNjSLHTabo4_3ABf-98" value="Actor" style="shape=umlActor;verticalLabelPosition=bottom;verticalAlign=top;html=1;" vertex="1" parent="qtVgZNjSLHTabo4_3ABf-91">
          <mxGeometry x="4" y="344" width="30" height="43" as="geometry" />
        </mxCell>
        <mxCell id="qtVgZNjSLHTabo4_3ABf-99" value="Info" style="whiteSpace=wrap;html=1;shape=mxgraph.basic.document" vertex="1" parent="qtVgZNjSLHTabo4_3ABf-91">
          <mxGeometry x="4" y="131" width="129" height="100" as="geometry" />
        </mxCell>
        <mxCell id="qtVgZNjSLHTabo4_3ABf-100" value="" style="html=1;shadow=0;dashed=0;align=center;verticalAlign=middle;shape=mxgraph.arrows2.arrow;dy=0.6;dx=40;notch=0;" vertex="1" parent="qtVgZNjSLHTabo4_3ABf-91">
          <mxGeometry x="133" y="176" width="51" height="22" as="geometry" />
        </mxCell>
        <mxCell id="qtVgZNjSLHTabo4_3ABf-101" value="Mapa" style="verticalAlign=top;align=left;spacingTop=8;spacingLeft=2;spacingRight=12;shape=cube;size=10;direction=south;fontStyle=4;html=1;whiteSpace=wrap;" vertex="1" parent="qtVgZNjSLHTabo4_3ABf-91">
          <mxGeometry x="197" y="131" width="180" height="120" as="geometry" />
        </mxCell>
        <mxCell id="qtVgZNjSLHTabo4_3ABf-103" value="" style="rounded=0;whiteSpace=wrap;html=1;" vertex="1" parent="1">
          <mxGeometry x="25" y="-685" width="466" height="60" as="geometry" />
        </mxCell>
        <mxCell id="qtVgZNjSLHTabo4_3ABf-104" value="" style="whiteSpace=wrap;html=1;shape=mxgraph.basic.pointed_oval" vertex="1" parent="1">
          <mxGeometry x="49" y="-673" width="50" height="31" as="geometry" />
        </mxCell>
      </root>
    </mxGraphModel>
  </diagram>
</mxfile>
